<svg xmlns="http://www.w3.org/2000/svg" viewBox="0 0 48 48">
  <rect x="2" y="2" width="44" height="44" rx="12" fill="#0e141b"/>
  <rect x="2" y="2" width="44" height="44" rx="12" fill="#2be6c4" fill-opacity="0.12" stroke="#2be6c4" stroke-width="1.4"/>
  <path d="M14 17V14a3 3 0 0 1 3-3h3" stroke="#2be6c4" stroke-width="2.4" stroke-linecap="round" fill="none"/>
  <path d="M34 17V14a3 3 0 0 0-3-3h-3" stroke="#2be6c4" stroke-width="2.4" stroke-linecap="round" fill="none"/>
  <path d="M14 31v3a3 3 0 0 0 3 3h3" stroke="#2be6c4" stroke-width="2.4" stroke-linecap="round" fill="none"/>
  <path d="M34 31v3a3 3 0 0 1-3 3h-3" stroke="#2be6c4" stroke-width="2.4" stroke-linecap="round" fill="none"/>
  <rect x="16" y="16" width="6" height="6" rx="1" fill="#2be6c4"/>
  <rect x="26" y="16" width="6" height="6" rx="1" fill="#2be6c4"/>
  <rect x="16" y="26" width="6" height="6" rx="1" fill="#2be6c4"/>
  <rect x="26" y="26" width="2" height="2" fill="#2be6c4"/>
  <rect x="30" y="26" width="2" height="2" fill="#2be6c4"/>
  <rect x="26" y="30" width="2" height="2" fill="#2be6c4"/>
  <rect x="30" y="30" width="2" height="2" fill="#2be6c4"/>
</svg>
